<?xml version="1.0" encoding="UTF-8" standalone="no"?>
<!-- Uploaded to: SVG Repo, www.svgrepo.com, Generator: SVG Repo Mixer Tools -->

<svg
   width="800px"
   height="800px"
   viewBox="0 0 18 18"
   version="1.1"
   id="svg1"
   sodipodi:docname="coffee-off.svg"
   inkscape:version="1.4.4 (dcaf3e7d9e, 2026-05-05)"
   xmlns:inkscape="http://www.inkscape.org/namespaces/inkscape"
   xmlns:sodipodi="http://sodipodi.sourceforge.net/DTD/sodipodi-0.dtd"
   xmlns="http://www.w3.org/2000/svg"
   xmlns:svg="http://www.w3.org/2000/svg"
   xmlns:rdf="http://www.w3.org/1999/02/22-rdf-syntax-ns#"
   xmlns:cc="http://creativecommons.org/ns#"
   xmlns:dc="http://purl.org/dc/elements/1.1/">
  <sodipodi:namedview
     id="namedview1"
     pagecolor="#ffffff"
     bordercolor="#000000"
     borderopacity="0.25"
     inkscape:showpageshadow="2"
     inkscape:pageopacity="0.0"
     inkscape:pagecheckerboard="0"
     inkscape:deskcolor="#d1d1d1"
     inkscape:zoom="1.01875"
     inkscape:cx="399.5092"
     inkscape:cy="400"
     inkscape:window-width="1920"
     inkscape:window-height="1024"
     inkscape:window-x="0"
     inkscape:window-y="0"
     inkscape:window-maximized="1"
     inkscape:current-layer="Dribbble-Light-Preview" />
  <title
     id="title1">coffee [#689]</title>
  <desc
     id="desc1">Created with Sketch.</desc>
  <defs
     id="defs1" />
  <g
     id="Page-1"
     stroke="none"
     stroke-width="1"
     fill="none"
     fill-rule="evenodd">
    <g
       id="Dribbble-Light-Preview"
       transform="translate(-421.000000, -5120.000000)"
       fill="#000000">
      <g
         id="icons"
         transform="translate(56.000000, 160.000000)">
        <path
           d="m 379.19718,4968.9998 h -2.02817 v 2.9999 h 2.02817 c 2.36586,0 2.36586,-2.9999 0,-2.9999 z m -4.05633,0 h -7.0986 c -0.55977,0 -1.01408,0.448 -1.01408,1 v 1.828 c 0,2.0889 1.54851,3.9549 3.6578,4.1529 2.41961,0.2279 4.45488,-1.642 4.45488,-3.981 z m 4.05633,4.9999 h -2.38208 c -0.91166,2.5389 -3.49859,4.2959 -6.45566,3.9589 -3.10006,-0.354 -5.35944,-3.0909 -5.35944,-6.1689 v -2.7899 c 0,-1.105 0.90761,-2 2.02817,-2 h 10.14084 2.02817 c 5.07043,0 5.07043,6.9999 0,6.9999 z"
           id="coffee-[#689]"
           sodipodi:nodetypes="sccsscssscscsccssscss" />
      </g>
    </g>
  </g>
  <metadata
     id="metadata1">
    <rdf:RDF>
      <cc:Work
         rdf:about="">
        <dc:title>coffee [#689]</dc:title>
      </cc:Work>
    </rdf:RDF>
  </metadata>
</svg>
